{"title":"Final Destination 5 2011 TS x264 Feel-Free","uid":6611419,"size":1112251610,"categoryP":"video","categoryS":"movies","magnet":"?xt=urn:btih:461a92e04a6893ae440761311b32747202bf539f&amp;dn=Final+Destination+5+2011+TS+x264+Feel-Free&amp;tr=udp%3A%2F%2Ftracker.openbittorrent.com%3A80&amp;tr=udp%3A%2F%2Fopen.demonii.com%3A1337&amp;tr=udp%3A%2F%2Ftracker.coppersurfer.tk%3A6969&amp;tr=udp%3A%2F%2Fexodus.desync.com%3A6969","seeders":5,"leechers":1,"uploader":".BONE.","files":8,"time":1313606025,"description":"\nGenre:Horror | Thriller\nLanguage:English\n &lt;a href=&quot;\nhttp://www.imdb.com/title/tt1622979/&quot; rel=&quot;nofollow&quot; target=&quot;_NEW&quot;&gt;\nhttp://www.imdb.com/title/tt1622979/&lt;/a&gt;\n\nSource:IMAGINE Thanks!\n\nFormat : MPEG-4\nFormat profile : Base Media\nCodec ID : isom\nFile size : 1.03 GiB\nDuration : 1h 26mn\nOverall bit rate : 1 711 Kbps\n\nVideo\nID : 1\nFormat : AVC\nFormat/Info : Advanced Video Codec\nFormat profile : &lt;a class=&quot;__cf_email__&quot; href=&quot;/cdn-cgi/l/email-protection&quot; data-cfemail=&quot;da92b3bdb29a96eef4eb&quot;&gt;[email&amp;#160;protected]&lt;/a&gt;&lt;script cf-hash='f9e31' type=&quot;text/javascript&quot;&gt;\n/* &lt;![CDATA[ */!function(){try{var t=&quot;currentScript&quot;in document?document.currentScript:function(){for(var t=document.getElementsByTagName(&quot;script&quot;),e=t.length;e--;)if(t[e].getAttribute(&quot;cf-hash&quot;))return t[e]}();if(t&amp;&amp;t.previousSibling){var e,r,n,i,c=t.previousSibling,a=c.getAttribute(&quot;data-cfemail&quot;);if(a){for(e=&quot;&quot;,r=parseInt(a.substr(0,2),16),n=2;a.length-n;n+=2)i=parseInt(a.substr(n,2),16)^r,e+=String.fromCharCode(i);e=document.createTextNode(e),c.parentNode.replaceChild(e,c)}}}catch(u){}}();/* ]]&gt; */&lt;/script&gt;\nFormat settings, CABAC : Yes\nFormat settings, ReFrames : 3 frames\nCodec ID : avc1\nCodec ID/Info : Advanced Video Coding\nDuration : 1h 26mn\nBit rate mode : Variable\nBit rate : 1 500 Kbps\nMaximum bit rate : 6 301 Kbps\nWidth : 720 pixels\nHeight : 256 pixels\nDisplay aspect ratio : 2.813\nFrame rate mode : Constant\nFrame rate : 29.970 fps\nColor space : YUV\nChroma subsampling : 4:2:0\nBit depth : 8 bits\nScan type : Progressive\nBits/(Pixel*Frame) : 0.272\nStream size : 918 MiB (87%)\nWriting library : x264\n\nAudio\nID : 2\nFormat : AAC\nFormat/Info : Advanced Audio Codec\nFormat version : Version 4\nFormat profile : LC\nFormat settings, SBR : No\nCodec ID : 40\nDuration : 1h 26mn\nBit rate mode : Variable\nBit rate : 224 Kbps\nMaximum bit rate : 261 Kbps\nChannel(s) : 2 channels\nChannel positions : Front: L R\nSampling rate : 44.1 KHz\nStream size : 139 MiB (13%)\n\n\nPlot:\nSurvivors of a suspension-bridge collapse learn there's no way you can cheat Death.\n &lt;a href=&quot;\nhttp://www.pix2links.com/images/93805285132877974421.png&quot; rel=&quot;nofollow&quot; target=&quot;_NEW&quot;&gt;\nhttp://www.pix2links.com/images/93805285132877974421.png&lt;/a&gt;\n &lt;a href=&quot;\nhttp://www.pix2links.com/images/47182797499463237356.png&quot; rel=&quot;nofollow&quot; target=&quot;_NEW&quot;&gt;\nhttp://www.pix2links.com/images/47182797499463237356.png&lt;/a&gt;\n &lt;a href=&quot;\nhttp://www.pix2links.com/images/35255643043866253070.png&quot; rel=&quot;nofollow&quot; target=&quot;_NEW&quot;&gt;\nhttp://www.pix2links.com/images/35255643043866253070.png&lt;/a&gt;","torrent":{"xt":"urn:btih:461a92e04a6893ae440761311b32747202bf539f","amp;dn":"Final+Destination+5+2011+TS+x264+Feel-Free","amp;tr":["udp%3A%2F%2Ftracker.openbittorrent.com%3A80","udp%3A%2F%2Fopen.demonii.com%3A1337","udp%3A%2F%2Ftracker.coppersurfer.tk%3A6969","udp%3A%2F%2Fexodus.desync.com%3A6969"],"infoHash":"461a92e04a6893ae440761311b32747202bf539f","infoHashBuffer":{"type":"Buffer","data":[70,26,146,224,74,104,147,174,68,7,97,49,27,50,116,114,2,191,83,159]},"announce":[],"urlList":[]}}